<?xml version="1.0" standalone="no"?>
<!DOCTYPE svg PUBLIC "-//W3C//DTD SVG 20010904//EN"
 "http://www.w3.org/TR/2001/REC-SVG-20010904/DTD/svg10.dtd">
<svg version="1.0" xmlns="http://www.w3.org/2000/svg"
 width="180.000000pt" height="212.000000pt" viewBox="0 0 180.000000 212.000000"
 preserveAspectRatio="xMidYMid meet">
<g transform="translate(0.000000,212.000000) scale(0.066667,-0.066667)"
fill="#000000" stroke="none">
<path d="M1073 2962 c-707 -115 -948 -633 -623 -1335 57 -125 57 -125 27 -152
-86 -78 -131 -294 -100 -477 58 -342 288 -551 688 -625 159 -30 570 -56 570
-37 0 6 -46 66 -102 134 -291 349 -599 839 -550 875 97 71 434 155 642 159
l132 4 -9 120 c-5 66 -13 150 -17 187 l-8 68 -93 -4 c-319 -13 -510 -52 -724
-147 -59 -25 -84 -31 -88 -18 -102 331 -53 796 101 965 216 237 711 229 919
-14 64 -74 66 -72 -60 -41 -266 67 -530 -30 -579 -211 -81 -302 211 -489 624
-400 161 35 252 153 253 327 1 450 -428 717 -1003 622z m-293 -1891 c75 -105
307 -342 458 -468 203 -170 197 -157 67 -145 -418 37 -715 327 -623 607 31 92
36 92 98 6z"/>
</g>
</svg>
