<?xml version="1.0" encoding="UTF-8" standalone="no"?>
<svg
   version="1.0"
   width="180.000000pt"
   height="212.000000pt"
   viewBox="0 0 180.000000 212.000000"
   preserveAspectRatio="xMidYMid meet"
   id="svg1"
   sodipodi:docname="express-f-int4-w.svg"
   inkscape:version="1.4.3 (0d15f75, 2025-12-25)"
   xmlns:inkscape="http://www.inkscape.org/namespaces/inkscape"
   xmlns:sodipodi="http://sodipodi.sourceforge.net/DTD/sodipodi-0.dtd"
   xmlns="http://www.w3.org/2000/svg"
   xmlns:svg="http://www.w3.org/2000/svg">
  <defs
     id="defs1" />
  <sodipodi:namedview
     id="namedview1"
     pagecolor="#ffffff"
     bordercolor="#000000"
     borderopacity="0.25"
     inkscape:showpageshadow="2"
     inkscape:pageopacity="0.0"
     inkscape:pagecheckerboard="0"
     inkscape:deskcolor="#d1d1d1"
     inkscape:document-units="pt"
     inkscape:zoom="2.919317"
     inkscape:cx="2.0552752"
     inkscape:cy="98.481938"
     inkscape:window-width="2560"
     inkscape:window-height="1369"
     inkscape:window-x="-8"
     inkscape:window-y="-8"
     inkscape:window-maximized="1"
     inkscape:current-layer="svg1" />
  <path
     id="path1"
     style="display:inline"
     d="m 1281.2192,2981.0007 c -66.7578,-0.9121 -136.3369,-7.1312 -208.2119,-19.0062 -477.93231,-77.7401 -742.91287,-339.6304 -764.05133,-718.0409 -24.12512,-268.1551 83.80256,-511.5949 189.31546,-748.6925 -99.27336,-76.649 -155.88917,-292.8752 -121.26648,-497.26072 58,-342 288.00437,-551.00908 688.00435,-625.00908 159,-30 569.9898,-56.00177 569.9898,-37.00177 0,6 -45.583,66.35318 -101.9965,134.01056 -226.5512,263.18931 -411.1413,555.73531 -570.42929,862.73011 97.93779,52.4927 344.07179,165.1538 662.42829,171.276 l 131.9891,3.999 c -8.3808,125.2747 -19.5523,250.283 -33.9915,375.0054 -397.061,22.4072 -660.4383,-74.3343 -905.00524,-169.0128 -135.71388,365.6842 -52.99221,796.0122 101.00779,965.0122 216.00005,237 674.21675,224.8945 906.74105,-16.743 51.7378,-63.1004 54.448,-87.3189 54.448,-87.3189 -328.5635,119.8813 -637.5601,-30.5756 -681.1929,-204.1909 -56.7716,-225.8945 254.5982,-403.1618 615.8246,-327.7865 152.8253,37.725 262.9125,163.8987 261.1876,297.0249 0.875,393.75 -327.4862,647.3899 -794.7909,641.0051 z m 379.0788,-514.2536 c 127.2386,-5.0435 246.2704,-32.8224 267.9725,-129.1127 1.2315,-95.0399 -112.0385,-150.4422 -236.5563,-158.1064 -111.445,-11.4211 -353.5177,8.3314 -385.6979,129.9598 -26.1329,98.772 170.5047,164.5438 354.2817,157.2593 z M 706.70301,1139.9211 C 856.05416,906.59215 1195.4254,632.1855 1417.8884,452.29022 602.68529,461.83805 604.80758,1063.2527 706.70301,1139.9211 Z"
     transform="matrix(0.066667,0,0,-0.066667,0,212)"
     sodipodi:nodetypes="scccccscccccccccsccssccssccc" />
</svg>
