<?xml version="1.0" standalone="no"?>
<!DOCTYPE svg PUBLIC "-//W3C//DTD SVG 20010904//EN"
 "http://www.w3.org/TR/2001/REC-SVG-20010904/DTD/svg10.dtd">
<svg version="1.0" xmlns="http://www.w3.org/2000/svg"
 width="130.000000pt" height="158.000000pt" viewBox="0 0 130.000000 158.000000"
 preserveAspectRatio="xMidYMid meet">
<g transform="translate(0.000000,158.000000) scale(0.066667,-0.066667)"
fill="#000000" stroke="none">
<path d="M334 2240 c-12 -5 1 -33 39 -85 140 -191 407 -581 407 -595 0 -8 -19
-15 -43 -15 -219 0 -509 -371 -474 -607 40 -262 498 -135 654 181 59 121 56
206 -23 631 -66 351 -65 338 -13 326 402 -89 626 -707 462 -1271 -121 -413
-392 -585 -533 -336 -41 72 -12 88 -278 -158 -267 -247 -269 -235 38 -207 400
37 570 90 812 250 531 352 540 1242 17 1629 -246 181 -876 334 -1065 257z"/>
</g>
</svg>
