<?xml version="1.0" standalone="no"?>
<!DOCTYPE svg PUBLIC "-//W3C//DTD SVG 20010904//EN"
 "http://www.w3.org/TR/2001/REC-SVG-20010904/DTD/svg10.dtd">
<svg version="1.0" xmlns="http://www.w3.org/2000/svg"
 width="142.000000pt" height="196.000000pt" viewBox="0 0 142.000000 196.000000"
 preserveAspectRatio="xMidYMid meet">
<g transform="translate(0.000000,196.000000) scale(0.066667,-0.066667)"
fill="#000000" stroke="none">
<path d="M1080 2671 c-224 -68 -339 -285 -336 -631 2 -169 75 -953 105 -1120
l9 -47 -58 20 c-144 52 -394 4 -441 -84 -118 -221 88 -421 372 -362 224 47
234 91 190 834 -48 811 4 1099 195 1093 224 -6 167 -565 -96 -934 l-29 -41
123 -55 c300 -134 406 -295 371 -565 -35 -277 -348 -475 -694 -439 -73 8 -86
6 -86 -15 0 -37 62 -48 270 -47 620 0 987 345 838 787 -69 204 -359 375 -636
375 -52 0 -49 7 82 187 134 185 220 358 250 502 69 336 -159 624 -429 542z"/>
</g>
</svg>
