<?xml version="1.0" encoding="UTF-8" standalone="no"?>
<!-- Created with Inkscape (http://www.inkscape.org/) -->

<svg
   width="4.018086mm"
   height="3.6492629mm"
   viewBox="0 0 4.018086 3.6492629"
   version="1.1"
   id="svg1"
   inkscape:version="1.4.3 (0d15f75, 2025-12-25)"
   sodipodi:docname="note-black-diag-jazz.svg"
   xmlns:inkscape="http://www.inkscape.org/namespaces/inkscape"
   xmlns:sodipodi="http://sodipodi.sourceforge.net/DTD/sodipodi-0.dtd"
   xmlns="http://www.w3.org/2000/svg"
   xmlns:svg="http://www.w3.org/2000/svg">
  <sodipodi:namedview
     id="namedview1"
     pagecolor="#ffffff"
     bordercolor="#000000"
     borderopacity="0.25"
     inkscape:showpageshadow="2"
     inkscape:pageopacity="0.0"
     inkscape:pagecheckerboard="0"
     inkscape:deskcolor="#d1d1d1"
     inkscape:document-units="mm"
     inkscape:zoom="1.0396254"
     inkscape:cx="-127.44975"
     inkscape:cy="8.1760217"
     inkscape:window-width="2560"
     inkscape:window-height="1369"
     inkscape:window-x="-8"
     inkscape:window-y="-8"
     inkscape:window-maximized="1"
     inkscape:current-layer="layer1" />
  <defs
     id="defs1" />
  <g
     inkscape:label="Layer 1"
     inkscape:groupmode="layer"
     id="layer1"
     transform="translate(-138.61394,-146.45188)">
    <path
       d="m 142.40342,146.68466 c 0.12402,0.11369 0.19637,0.26355 0.2191,0.45062 0.0248,0.18707 0.001,0.39067 -0.0703,0.61185 -0.0692,0.22014 -0.18603,0.45268 -0.3514,0.69866 -0.16536,0.24495 -0.37517,0.47956 -0.62838,0.7028 -0.23461,0.21704 -0.4837,0.39791 -0.74828,0.54157 -0.26251,0.14573 -0.51883,0.25425 -0.76894,0.3266 -0.24805,0.0713 -0.47543,0.0971 -0.68213,0.0786 -0.20671,-0.0196 -0.37104,-0.0858 -0.49196,-0.19844 -0.14056,-0.11369 -0.22634,-0.26355 -0.25632,-0.45062 -0.0269,-0.1881 -0.004,-0.39274 0.0703,-0.61598 0.0765,-0.22118 0.19637,-0.45062 0.35967,-0.6904 0.16537,-0.23771 0.37001,-0.46922 0.61598,-0.69453 0.23358,-0.21704 0.48163,-0.40308 0.74415,-0.55811 0.26458,-0.15399 0.52089,-0.26871 0.76894,-0.34313 0.25011,-0.0765 0.48059,-0.10542 0.6904,-0.0868 0.21187,0.0196 0.3886,0.0951 0.52917,0.22737 z"
       style="fill:#000000;fill-opacity:1;fill-rule:nonzero;stroke:none;stroke-width:0.352778"
       id="path1" />
  </g>
</svg>
