<?xml version="1.0" encoding="UTF-8" standalone="no"?>
<!-- Created with Inkscape (http://www.inkscape.org/) -->

<svg
   width="3.9727733mm"
   height="3.772311mm"
   viewBox="0 0 3.9727733 3.772311"
   version="1.1"
   id="svg1"
   inkscape:version="1.4.3 (0d15f75, 2025-12-25)"
   sodipodi:docname="note-white-diag-jazz.svg"
   xmlns:inkscape="http://www.inkscape.org/namespaces/inkscape"
   xmlns:sodipodi="http://sodipodi.sourceforge.net/DTD/sodipodi-0.dtd"
   xmlns="http://www.w3.org/2000/svg"
   xmlns:svg="http://www.w3.org/2000/svg">
  <sodipodi:namedview
     id="namedview1"
     pagecolor="#ffffff"
     bordercolor="#000000"
     borderopacity="0.25"
     inkscape:showpageshadow="2"
     inkscape:pageopacity="0.0"
     inkscape:pagecheckerboard="0"
     inkscape:deskcolor="#d1d1d1"
     inkscape:document-units="mm"
     inkscape:zoom="4.1585017"
     inkscape:cx="-19.117463"
     inkscape:cy="17.434164"
     inkscape:window-width="2560"
     inkscape:window-height="1369"
     inkscape:window-x="-8"
     inkscape:window-y="-8"
     inkscape:window-maximized="1"
     inkscape:current-layer="layer1" />
  <defs
     id="defs1" />
  <g
     inkscape:label="Layer 1"
     inkscape:groupmode="layer"
     id="layer1"
     transform="translate(-146.18603,-146.99115)">
    <path
       d="m 147.71679,148.3135 c -0.14056,0.11369 -0.26045,0.23978 -0.35967,0.38034 -0.0992,0.14056 -0.17156,0.27698 -0.21497,0.40928 -0.0413,0.13229 -0.0599,0.25838 -0.0537,0.3762 0.005,0.11576 0.0351,0.20671 0.0909,0.27285 0.11266,0.15916 0.3018,0.21601 0.56638,0.1695 0.12919,-0.0382 0.27078,-0.0971 0.42581,-0.17777 0.1571,-0.0796 0.30179,-0.17983 0.43408,-0.30179 0.27286,-0.24494 0.45269,-0.51056 0.54157,-0.79788 0.0879,-0.28629 0.0806,-0.50953 -0.0207,-0.66973 -0.0475,-0.0744 -0.12299,-0.12505 -0.22737,-0.15296 -0.10232,-0.03 -0.20981,-0.0351 -0.32246,-0.0165 -0.1323,0.0393 -0.27906,0.10128 -0.43822,0.18603 -0.1602,0.0827 -0.30076,0.19017 -0.42168,0.32246 z m -1.08727,0.32659 c 0.17053,-0.26458 0.37,-0.50436 0.59945,-0.71933 0.23151,-0.21704 0.47748,-0.39894 0.74,-0.5457 0.26458,-0.14573 0.5271,-0.25012 0.78962,-0.3142 0.26458,-0.0661 0.50953,-0.0847 0.73587,-0.0579 0.26148,0.0196 0.44855,0.10955 0.56224,0.26871 0.11265,0.1602 0.13229,0.39068 0.0579,0.6904 -0.031,0.1602 -0.0827,0.33383 -0.1571,0.5209 -0.0744,0.1881 -0.16847,0.37104 -0.28112,0.54984 -0.16019,0.28112 -0.36277,0.5333 -0.60771,0.75654 -0.24288,0.22014 -0.4992,0.40514 -0.76895,0.55397 -0.26768,0.1509 -0.53743,0.26458 -0.81029,0.339 -0.27285,0.0744 -0.51676,0.0971 -0.73173,0.0703 -0.25425,-0.0279 -0.42065,-0.13436 -0.50023,-0.31833 -0.0806,-0.1819 -0.093,-0.42375 -0.0372,-0.72347 0.0382,-0.15916 0.0848,-0.32659 0.14056,-0.50023 0.0579,-0.17363 0.14676,-0.3638 0.26872,-0.57051 z"
       style="fill:#000000;fill-opacity:1;fill-rule:nonzero;stroke:none;stroke-width:0.352778"
       id="path1" />
  </g>
</svg>
