<?xml version="1.0" encoding="UTF-8" standalone="no"?>
<!-- Created with Inkscape (http://www.inkscape.org/) -->

<svg
   width="4.1695361mm"
   height="3.4897628mm"
   viewBox="0 0 4.1695361 3.4897628"
   version="1.1"
   id="svg1"
   inkscape:version="1.4.3 (0d15f75, 2025-12-25)"
   sodipodi:docname="note-white-diag-classic.svg"
   xmlns:inkscape="http://www.inkscape.org/namespaces/inkscape"
   xmlns:sodipodi="http://sodipodi.sourceforge.net/DTD/sodipodi-0.dtd"
   xmlns="http://www.w3.org/2000/svg"
   xmlns:svg="http://www.w3.org/2000/svg">
  <sodipodi:namedview
     id="namedview1"
     pagecolor="#ffffff"
     bordercolor="#000000"
     borderopacity="0.25"
     inkscape:showpageshadow="2"
     inkscape:pageopacity="0.0"
     inkscape:pagecheckerboard="0"
     inkscape:deskcolor="#d1d1d1"
     inkscape:document-units="mm"
     inkscape:zoom="16.634007"
     inkscape:cx="2.3145355"
     inkscape:cy="9.4685544"
     inkscape:window-width="2560"
     inkscape:window-height="1369"
     inkscape:window-x="-8"
     inkscape:window-y="-8"
     inkscape:window-maximized="1"
     inkscape:current-layer="layer1" />
  <defs
     id="defs1" />
  <g
     inkscape:label="Layer 1"
     inkscape:groupmode="layer"
     id="layer1"
     transform="translate(-111.12499,-138.37708)">
    <path
       d="m 111.22931,141.39968 c -0.14344,-0.26395 -0.10945,-0.58057 -0.0814,-0.86852 0.0888,-0.50748 0.28371,-1.00922 0.61902,-1.40576 0.33432,-0.40122 0.82441,-0.6571 1.34179,-0.71869 0.3087,-0.0385 0.62198,-0.0351 0.93222,-0.0207 0.40101,0.0383 0.85491,0.1333 1.10142,0.48374 0.22387,0.37871 0.15972,0.84208 0.083,1.25447 -0.14476,0.7223 -0.70258,1.32924 -1.39442,1.56848 -0.55619,0.19536 -1.15848,0.1982 -1.73912,0.1487 -0.32073,-0.0533 -0.68168,-0.14295 -0.86255,-0.44175 z m 0.48369,-0.0289 c 0.21918,0.22991 0.56619,0.1805 0.84517,0.11549 0.58861,-0.11975 1.10687,-0.46645 1.52704,-0.88528 0.34113,-0.33421 0.62578,-0.74658 0.73914,-1.21547 0.0581,-0.21391 -0.01,-0.48286 -0.22391,-0.58137 -0.37162,-0.15148 -0.77607,0.002 -1.12394,0.14684 -0.49117,0.22568 -0.93172,0.55731 -1.30719,0.94434 -0.26411,0.30131 -0.5748,0.62331 -0.61011,1.04285 0.001,0.15002 0.0351,0.33805 0.1538,0.4326 z"
       style="fill:#000000;fill-opacity:1;fill-rule:nonzero;stroke:none;stroke-width:0.352778"
       id="path1-3" />
  </g>
</svg>
