<?xml version="1.0" encoding="UTF-8" standalone="no"?>
<!-- Created with Inkscape (http://www.inkscape.org/) -->

<svg
   version="1.0"
   width="14.566"
   height="41.919998"
   id="svg1463"
   sodipodi:docname="note-white-v2.svg"
   inkscape:version="1.4.3 (0d15f75, 2025-12-25)"
   xmlns:inkscape="http://www.inkscape.org/namespaces/inkscape"
   xmlns:sodipodi="http://sodipodi.sourceforge.net/DTD/sodipodi-0.dtd"
   xmlns="http://www.w3.org/2000/svg"
   xmlns:svg="http://www.w3.org/2000/svg">
  <sodipodi:namedview
     id="namedview1"
     pagecolor="#ffffff"
     bordercolor="#000000"
     borderopacity="0.25"
     inkscape:showpageshadow="2"
     inkscape:pageopacity="0.0"
     inkscape:pagecheckerboard="0"
     inkscape:deskcolor="#d1d1d1"
     inkscape:zoom="64"
     inkscape:cx="6.8515625"
     inkscape:cy="6.7421875"
     inkscape:window-width="2560"
     inkscape:window-height="1369"
     inkscape:window-x="-8"
     inkscape:window-y="-8"
     inkscape:window-maximized="1"
     inkscape:current-layer="g10997"
     showguides="true" />
  <defs
     id="defs1466" />
  <g
     transform="matrix(-1,0,0,-1,247.8306,258.8548)"
     id="g10997">
    <path
       d="m 233.36785,254.5453 c 0.27003,2.69366 3.74882,4.56214 7.67359,4.16996 3.92475,-0.3922 6.95331,-2.89981 6.68329,-5.59347 -0.27003,-2.69365 -3.72564,-4.56767 -7.65039,-4.17549 -2.6562,0.13111 -7.04364,2.23554 -6.70649,5.599 z"
       style="opacity:0.9;fill:none;fill-opacity:1;fill-rule:evenodd;stroke:#000000;stroke-width:0.132287;stroke-miterlimit:4;stroke-dasharray:none;stroke-dashoffset:0;stroke-opacity:1"
       id="path10999-4"
       sodipodi:nodetypes="scscs" />
    <path
       d="m 233.34263,254.36328 c 0.29728,3.26985 3.2619,3.3789 7.61509,2.9439 4.43132,-0.41939 7.08397,-1.33176 6.78161,-4.17078 -0.311,-2.9202 -3.1738,-3.22867 -7.62972,-2.92395 -3.40879,0.18116 -7.04637,1.0778 -6.76698,4.15083 z"
       style="opacity:0.9;fill:none;fill-opacity:1;fill-rule:evenodd;stroke:#000000;stroke-width:0.103419;stroke-miterlimit:4;stroke-dasharray:none;stroke-dashoffset:0;stroke-opacity:1"
       id="path10999-4-5"
       sodipodi:nodetypes="scscs" />
  </g>
</svg>
