<?xml version="1.0" encoding="UTF-8" standalone="no"?>
<!-- Created with Inkscape (http://www.inkscape.org/) -->

<svg
   width="4.0307202mm"
   height="2.94349mm"
   viewBox="0 0 4.0307202 2.94349"
   version="1.1"
   id="svg1"
   inkscape:version="1.4.3 (0d15f75, 2025-12-25)"
   sodipodi:docname="note-white-jazz.svg"
   xmlns:inkscape="http://www.inkscape.org/namespaces/inkscape"
   xmlns:sodipodi="http://sodipodi.sourceforge.net/DTD/sodipodi-0.dtd"
   xmlns="http://www.w3.org/2000/svg"
   xmlns:svg="http://www.w3.org/2000/svg">
  <sodipodi:namedview
     id="namedview1"
     pagecolor="#ffffff"
     bordercolor="#000000"
     borderopacity="0.25"
     inkscape:showpageshadow="2"
     inkscape:pageopacity="0.0"
     inkscape:pagecheckerboard="0"
     inkscape:deskcolor="#d1d1d1"
     inkscape:document-units="mm"
     inkscape:zoom="11.762019"
     inkscape:cx="-0.72266505"
     inkscape:cy="6.8440631"
     inkscape:window-width="2560"
     inkscape:window-height="1369"
     inkscape:window-x="-8"
     inkscape:window-y="-8"
     inkscape:window-maximized="1"
     inkscape:current-layer="layer1" />
  <defs
     id="defs1" />
  <g
     inkscape:label="Layer 1"
     inkscape:groupmode="layer"
     id="layer1"
     transform="translate(-148.89915,-175.64104)">
    <path
       d="m 149.77144,177.10451 c -0.13022,0.1509 -0.2005,0.27079 -0.21084,0.35967 -0.008,0.091 0.0269,0.1571 0.10749,0.19844 0.0796,0.0413 0.20361,0.0682 0.37207,0.0827 0.17053,0.0134 0.36794,0.0207 0.59118,0.0207 0.1509,0 0.28319,-0.003 0.39687,-0.008 0.11266,-0.003 0.22015,-0.0269 0.32247,-0.0703 0.10438,-0.0413 0.2129,-0.10645 0.32659,-0.1943 0.11266,-0.0889 0.23978,-0.21291 0.38034,-0.37207 0.12092,-0.15193 0.1912,-0.27492 0.21084,-0.36794 0.0186,-0.0941 -0.0114,-0.16433 -0.0909,-0.21084 -0.0806,-0.0475 -0.20567,-0.0785 -0.37621,-0.0951 -0.16846,-0.0145 -0.37,-0.0207 -0.60358,-0.0207 -0.15193,0 -0.28732,0.004 -0.40514,0.0124 -0.11575,0.0103 -0.22634,0.0372 -0.33073,0.0785 -0.10232,0.0434 -0.2067,0.10955 -0.31419,0.19844 -0.10749,0.0909 -0.23358,0.22014 -0.37621,0.3886 z m -0.87229,0 c 0,-0.16846 0.0331,-0.33899 0.0992,-0.51263 0.0661,-0.17363 0.1757,-0.33279 0.33072,-0.47542 0.154,-0.14056 0.36071,-0.25425 0.62012,-0.34313 0.25838,-0.0879 0.58084,-0.13229 0.96738,-0.13229 0.38241,0 0.70384,0.0444 0.96325,0.13229 0.25839,0.0889 0.46509,0.20257 0.62012,0.34313 0.1571,0.14263 0.26665,0.30179 0.33073,0.47542 0.0661,0.17364 0.0992,0.34417 0.0992,0.51263 0,0.17054 -0.0331,0.34314 -0.0992,0.51677 -0.0641,0.17363 -0.17363,0.33176 -0.33073,0.47542 -0.15503,0.14573 -0.36173,0.26252 -0.62012,0.3514 -0.25941,0.0909 -0.58084,0.13643 -0.96325,0.13643 -0.38654,0 -0.709,-0.0455 -0.96738,-0.13643 -0.25941,-0.0889 -0.46612,-0.20567 -0.62012,-0.3514 -0.15502,-0.14366 -0.26458,-0.30179 -0.33072,-0.47542 -0.0661,-0.17363 -0.0992,-0.34623 -0.0992,-0.51677 z"
       style="fill:#000000;fill-opacity:1;fill-rule:nonzero;stroke:none;stroke-width:0.352778"
       id="path1" />
  </g>
</svg>
