<?xml version="1.0" encoding="UTF-8" standalone="no"?>
<!-- Created with Inkscape (http://www.inkscape.org/) -->

<svg
   width="4.1695266mm"
   height="3.3326967mm"
   viewBox="0 0 4.1695266 3.3326967"
   version="1.1"
   id="svg1"
   inkscape:version="1.4.3 (0d15f75, 2025-12-25)"
   sodipodi:docname="note-white-classic.svg"
   xmlns:inkscape="http://www.inkscape.org/namespaces/inkscape"
   xmlns:sodipodi="http://sodipodi.sourceforge.net/DTD/sodipodi-0.dtd"
   xmlns="http://www.w3.org/2000/svg"
   xmlns:svg="http://www.w3.org/2000/svg">
  <sodipodi:namedview
     id="namedview1"
     pagecolor="#ffffff"
     bordercolor="#000000"
     borderopacity="0.25"
     inkscape:showpageshadow="2"
     inkscape:pageopacity="0.0"
     inkscape:pagecheckerboard="0"
     inkscape:deskcolor="#d1d1d1"
     inkscape:document-units="mm"
     inkscape:zoom="8.3170034"
     inkscape:cx="8.8373175"
     inkscape:cy="40.940226"
     inkscape:window-width="2560"
     inkscape:window-height="1369"
     inkscape:window-x="-8"
     inkscape:window-y="-8"
     inkscape:window-maximized="1"
     inkscape:current-layer="layer1" />
  <defs
     id="defs1" />
  <g
     inkscape:label="Layer 1"
     inkscape:groupmode="layer"
     id="layer1"
     transform="translate(-121.44375,-148.43125)">
    <path
       d="m 121.54806,151.3216 c -0.14353,-0.25956 -0.11121,-0.57285 -0.0775,-0.85628 0.11956,-0.62458 0.41712,-1.24727 0.94581,-1.62492 0.47045,-0.35297 1.07999,-0.42491 1.65176,-0.40855 0.42194,-0.002 0.87469,0.0364 1.22724,0.29083 0.30991,0.2284 0.34519,0.65167 0.3073,1.00469 -0.0395,0.51813 -0.24803,1.03305 -0.63784,1.38613 -0.46519,0.44274 -1.11509,0.62443 -1.74413,0.64619 -0.45316,0.004 -0.93224,0.0297 -1.35434,-0.16404 -0.12683,-0.0626 -0.24133,-0.15428 -0.31826,-0.27405 z m 0.40514,-0.26045 c 0.19491,0.15018 0.45866,0.12122 0.68992,0.11464 0.59042,-0.0392 1.1356,-0.30924 1.61062,-0.64762 0.34664,-0.24075 0.70098,-0.51455 0.88557,-0.905 0.0829,-0.18442 0.0611,-0.46438 -0.15525,-0.54332 -0.35776,-0.13415 -0.75297,-0.0406 -1.10344,0.0725 -0.60541,0.23264 -1.1666,0.5777 -1.66273,0.99399 -0.22315,0.19368 -0.43804,0.49475 -0.33008,0.8039 0.017,0.0299 0.0286,0.10519 0.0654,0.11088 z"
       style="fill:#000000;fill-opacity:1;fill-rule:nonzero;stroke:none;stroke-width:0.352778"
       id="path1-34" />
  </g>
</svg>
