<?xml version="1.0" encoding="UTF-8" standalone="no"?>
<!-- Created with Inkscape (http://www.inkscape.org/) -->

<svg
   width="4.0335493mm"
   height="3.8654001mm"
   viewBox="0 0 4.0335493 3.8654001"
   version="1.1"
   id="svg1"
   inkscape:version="1.4.3 (0d15f75, 2025-12-25)"
   sodipodi:docname="note-white-diag-mid-jazz.svg"
   xmlns:inkscape="http://www.inkscape.org/namespaces/inkscape"
   xmlns:sodipodi="http://sodipodi.sourceforge.net/DTD/sodipodi-0.dtd"
   xmlns="http://www.w3.org/2000/svg"
   xmlns:svg="http://www.w3.org/2000/svg">
  <sodipodi:namedview
     id="namedview1"
     pagecolor="#ffffff"
     bordercolor="#000000"
     borderopacity="0.25"
     inkscape:showpageshadow="2"
     inkscape:pageopacity="0.0"
     inkscape:pagecheckerboard="0"
     inkscape:deskcolor="#d1d1d1"
     inkscape:document-units="mm"
     inkscape:zoom="1.0396254"
     inkscape:cx="-172.65834"
     inkscape:cy="-89.936239"
     inkscape:window-width="2560"
     inkscape:window-height="1369"
     inkscape:window-x="-8"
     inkscape:window-y="-8"
     inkscape:window-maximized="1"
     inkscape:current-layer="layer1" />
  <defs
     id="defs1" />
  <g
     inkscape:label="Layer 1"
     inkscape:groupmode="layer"
     id="layer1"
     transform="translate(-150.62132,-172.36165)">
    <path
       d="m 151.97596,173.6887 c -0.28111,0.28112 -0.45475,0.58188 -0.52089,0.90124 -0.0662,0.31936 -0.0145,0.56844 0.15709,0.74827 0.14883,0.14883 0.38241,0.19534 0.7028,0.14056 0.15916,-0.0393 0.3266,-0.10542 0.50023,-0.19843 0.17363,-0.0941 0.3359,-0.21084 0.48782,-0.3514 0.28113,-0.28112 0.45166,-0.58498 0.51264,-0.90951 0.063,-0.32453 0.009,-0.57154 -0.16124,-0.74001 -0.0744,-0.0744 -0.17569,-0.12195 -0.30178,-0.14469 -0.12713,-0.0248 -0.26046,-0.0227 -0.40101,0.004 -0.1602,0.0393 -0.32556,0.10542 -0.4961,0.19844 -0.16846,0.0941 -0.32866,0.21084 -0.47956,0.3514 z m -1.14101,0.62012 c 0.12092,-0.28112 0.28939,-0.53847 0.50436,-0.77308 0.21704,-0.23668 0.45579,-0.44235 0.7152,-0.61598 0.25838,-0.17364 0.52607,-0.31006 0.80202,-0.40928 0.27802,-0.0992 0.54984,-0.14883 0.81442,-0.14883 0.30799,0 0.54984,0.0734 0.72347,0.21911 0.17363,0.14676 0.26045,0.37 0.26045,0.66973 0,0.15192 -0.0165,0.32452 -0.0496,0.51676 -0.0331,0.19327 -0.0909,0.37414 -0.17363,0.54157 -0.12402,0.29145 -0.29249,0.555 -0.50436,0.78961 -0.20981,0.23358 -0.44442,0.43512 -0.70281,0.60359 -0.25941,0.17053 -0.52916,0.29972 -0.81028,0.3886 -0.28112,0.091 -0.55397,0.13643 -0.81855,0.13643 -0.30903,0 -0.54364,-0.0662 -0.7028,-0.19844 -0.1602,-0.13229 -0.25012,-0.34933 -0.26872,-0.64906 -0.008,-0.16019 0.001,-0.32969 0.0289,-0.50849 0.0269,-0.17673 0.0878,-0.3638 0.1819,-0.56224 z"
       style="fill:#000000;fill-opacity:1;fill-rule:nonzero;stroke:none;stroke-width:0.352778"
       id="path1" />
  </g>
</svg>
