<?xml version="1.0" encoding="UTF-8" standalone="no"?>
<svg
   version="1.0"
   width="88.000000pt"
   height="237.000000pt"
   viewBox="0 0 88.000000 237.000000"
   preserveAspectRatio="xMidYMid meet"
   id="svg3"
   sodipodi:docname="pianoroll.svg"
   inkscape:version="1.4.3 (0d15f75, 2025-12-25)"
   xmlns:inkscape="http://www.inkscape.org/namespaces/inkscape"
   xmlns:sodipodi="http://sodipodi.sourceforge.net/DTD/sodipodi-0.dtd"
   xmlns="http://www.w3.org/2000/svg"
   xmlns:svg="http://www.w3.org/2000/svg">
  <defs
     id="defs3" />
  <sodipodi:namedview
     id="namedview3"
     pagecolor="#ffffff"
     bordercolor="#000000"
     borderopacity="0.25"
     inkscape:showpageshadow="2"
     inkscape:pageopacity="0.0"
     inkscape:pagecheckerboard="0"
     inkscape:deskcolor="#d1d1d1"
     inkscape:document-units="pt"
     inkscape:zoom="3.693038"
     inkscape:cx="58.623822"
     inkscape:cy="201.32476"
     inkscape:window-width="2560"
     inkscape:window-height="1369"
     inkscape:window-x="-8"
     inkscape:window-y="-8"
     inkscape:window-maximized="1"
     inkscape:current-layer="g3" />
  <g
     transform="translate(0.000000,237.000000) scale(0.066667,-0.066667)"
     fill="#000000"
     stroke="none"
     id="g3">
    <path
       d="M 509.04626,2912.7225 C 505.04626,2904.7225 500,2745 501,2535 l 2,-382 c 237.33687,1.9172 474.66636,4.6808 712,7 v 165 H 600 v 120 h 616 c -2.7013,56.3317 -5.349,112.6659 -8,169 l -608,-6 v 152 h 615 v 165 H 932 c -423.13512,0 -410.31648,5.4147 -422.95374,-12.2775 z"
       id="path1"
       sodipodi:nodetypes="cccccccccccccsc" />
    <path
       d="m 501,1855 c -4,-11 -5,-117 -3,-236 l 5,-216 c 237.33687,1.9172 474.66636,4.6808 712,7 v 165 H 600 v 137 c 202.67539,-1.601 405.3368,-4.3334 608,-7 l 8,170 H 863 c -280,0 -356,-4 -362,-20 z"
       id="path2"
       sodipodi:nodetypes="cccccccccsc" />
    <path
       d="M 500,739 V 353 c 236.00542,0.93427 472.00204,3.00002 708,5 2.6318,55.66834 5.3173,111.3341 8,167 H 600 v 135 h 615 V 825 H 600 v 136 l 608,-4 8,168 H 501 Z"
       id="path3"
       sodipodi:nodetypes="cccccccccccccc" />
  </g>
</svg>
